<svg xmlns="http://www.w3.org/2000/svg" viewBox="0 0 960 480" role="img" aria-label="5;0@CAL" preserveAspectRatio="xMidYMid slice">
  <defs>
    <pattern id="by-ornament" width="48" height="48" patternUnits="userSpaceOnUse">
      <rect width="48" height="48" fill="#fff"/>
      <g fill="#c8312a">
        <path d="M24 4 L28 12 L36 10 L30 18 L38 24 L30 30 L36 38 L28 36 L24 44 L20 36 L12 38 L18 30 L10 24 L18 18 L12 10 L20 12 Z"/>
        <circle cx="24" cy="24" r="4.5" fill="#fff"/>
        <circle cx="24" cy="24" r="2.2"/>
        <rect x="22.5" y="0" width="3" height="8" rx="1"/>
        <rect x="22.5" y="40" width="3" height="8" rx="1"/>
        <rect x="0" y="22.5" width="8" height="3" rx="1"/>
        <rect x="40" y="22.5" width="8" height="3" rx="1"/>
      </g>
    </pattern>
  </defs>
  <!-- Red field (upper 2/3) -->
  <rect x="96" y="0" width="864" height="320" fill="#c8312a"/>
  <!-- Green field (lower 1/3) -->
  <rect x="96" y="320" width="864" height="160" fill="#4aa54a"/>
  <!-- Ornamental hoist -->
  <rect x="0" y="0" width="96" height="480" fill="url(#by-ornament)"/>
</svg>
